HIERARCHY
ROOT Hips
{
	OFFSET 14.658700 -1.743397 44.686901
	CHANNELS 6 Xposition Yposition Zposition Zrotation Xrotation Yrotation
	JOINT Chest
	{
		OFFSET -0.825500 0.895800 5.069500
		CHANNELS 6 Xposition Yposition Zposition Zrotation Xrotation Yrotation
		JOINT Chest2
		{
			OFFSET 0.000000 0.000000 4.622200
			CHANNELS 6 Xposition Yposition Zposition Zrotation Xrotation Yrotation
			JOINT Neck
			{
				OFFSET 0.000000 0.000001 10.755798
				CHANNELS 6 Xposition Yposition Zposition Zrotation Xrotation Yrotation
				JOINT Head
				{
					OFFSET 0.000000 0.000000 2.173897
					CHANNELS 6 Xposition Yposition Zposition Zrotation Xrotation Yrotation
					End Site
					{
						OFFSET 0.000000 0.000001 10.006599
					}
				}
			}
			JOINT LeftCollar
			{
				OFFSET 2.539400 -1.380899 6.761002
				CHANNELS 6 Xposition Yposition Zposition Zrotation Xrotation Yrotation
				JOINT LeftShoulder
				{
					OFFSET 5.407000 0.000000 0.000000
					CHANNELS 6 Xposition Yposition Zposition Zrotation Xrotation Yrotation
					JOINT LeftElbow
					{
						OFFSET 0.000000 -0.000001 -10.687000
						CHANNELS 6 Xposition Yposition Zposition Zrotation Xrotation Yrotation
						JOINT LeftWrist
						{
							OFFSET 0.000000 -0.000001 -13.346901
							CHANNELS 6 Xposition Yposition Zposition Zrotation Xrotation Yrotation
							End Site
							{
								OFFSET 0.000000 -0.000000 -2.173901
							}
						}
					}
				}
			}
			JOINT RightCollar
			{
				OFFSET -2.411400 -2.842699 7.518600
				CHANNELS 6 Xposition Yposition Zposition Zrotation Xrotation Yrotation
				JOINT RightShoulder
				{
					OFFSET -4.245500 0.000000 0.000000
					CHANNELS 6 Xposition Yposition Zposition Zrotation Xrotation Yrotation
					JOINT RightElbow
					{
						OFFSET 0.000000 -0.000001 -10.446701
						CHANNELS 6 Xposition Yposition Zposition Zrotation Xrotation Yrotation
						JOINT RightWrist
						{
							OFFSET 0.000000 -0.000001 -12.218899
							CHANNELS 6 Xposition Yposition Zposition Zrotation Xrotation Yrotation
							End Site
							{
								OFFSET 0.000000 0.000000 -2.173901
							}
						}
					}
				}
			}
		}
	}
	JOINT LeftHip
	{
		OFFSET 2.346700 0.301800 -2.502800
		CHANNELS 6 Xposition Yposition Zposition Zrotation Xrotation Yrotation
		JOINT LeftKnee
		{
			OFFSET 0.000000 -0.000002 -20.597000
			CHANNELS 6 Xposition Yposition Zposition Zrotation Xrotation Yrotation
			JOINT LeftAnkle
			{
				OFFSET 0.000000 -0.000001 -17.157499
				CHANNELS 6 Xposition Yposition Zposition Zrotation Xrotation Yrotation
				End Site
				{
					OFFSET 0.000000 -9.063900 0.000001
				}
			}
		}
	}
	JOINT RightHip
	{
		OFFSET -1.908600 -0.007900 -2.706001
		CHANNELS 6 Xposition Yposition Zposition Zrotation Xrotation Yrotation
		JOINT RightKnee
		{
			OFFSET 0.000000 -0.000002 -20.198500
			CHANNELS 6 Xposition Yposition Zposition Zrotation Xrotation Yrotation
			JOINT RightAnkle
			{
				OFFSET 0.000000 -0.000001 -17.295700
				CHANNELS 6 Xposition Yposition Zposition Zrotation Xrotation Yrotation
				End Site
				{
					OFFSET 0.000000 -8.113500 0.000001
				}
			}
		}
	}
}
MOTION
Frames: 4
Frame Time: 0.041667
38.109402 28.289303 43.991695 -159.397805 13.591196 1.616272 -0.825500 0.895804 5.069493 -21.593957 -17.117581 -4.823142 0.000003 0.000009 4.622199 21.765368 0.159494 -1.666650 -0.000003 0.000003 10.755796 5.713644 -10.274426 -3.777277 0.000002 -0.000002 2.173900 0.766869 -1.546133 0.482564 2.539398 -1.380901 6.761004 6.017113 -6.816373 -0.490676 5.407002 0.000003 -0.000000 172.755005 -130.371058 100.932103 0.000002 0.000006 -10.686995 71.620892 -12.290018 16.108417 0.000003 -0.000003 -13.346894 17.385413 -1.454934 16.121876 -2.411405 -2.842701 7.518600 -3.301889 -17.849065 26.715178 -4.245508 -0.000001 -0.000007 -27.835020 -126.555769 42.330879 -0.000006 -0.000006 -10.446684 -49.267801 -137.285177 -74.998441 0.000009 -0.000006 -12.218894 -21.581502 5.217282 81.385372 2.346701 0.301803 -2.502801 29.927881 -30.837416 17.018557 0.000007 0.000002 -20.596996 129.449065 126.195163 -156.142373 -0.000000 -0.000003 -17.157499 20.694940 1.451461 9.035878 -1.908601 -0.007896 -2.706009 -67.834044 -42.738088 -39.894008 0.000001 -0.000005 -20.198507 154.448295 23.426436 -141.405844 -0.000002 -0.000003 -17.295704 -11.538866 23.973247 -7.933585
37.713902 28.364601 44.043892 -163.764208 12.190130 2.003363 -0.825507 0.895806 5.069501 -16.878905 -15.893066 -2.831441 0.000005 0.000003 4.622201 15.866646 0.071751 -1.195026 -0.000004 0.000003 10.755810 4.868932 -9.289417 -3.849644 -0.000001 -0.000005 2.173904 0.358638 -1.638732 0.488370 2.539397 -1.380900 6.761003 6.505543 -4.669766 -1.161206 5.407004 -0.000005 0.000000 171.516022 -129.817758 100.708114 -0.000005 0.000003 -10.686996 81.261397 -9.946758 17.903736 -0.000004 -0.000005 -13.346894 9.534667 -1.256107 16.277770 -2.411405 -2.842697 7.518602 -2.881466 -17.085305 26.878895 -4.245498 -0.000002 -0.000004 -29.818830 -126.522069 41.422454 -0.000001 0.000005 -10.446703 -48.394995 -136.840969 -75.610071 0.000014 -0.000004 -12.218904 -21.408241 5.255207 81.459268 2.346696 0.301805 -2.502793 29.942525 -29.705756 15.207601 0.000007 0.000002 -20.596996 128.465763 126.534992 -154.011914 0.000002 0.000000 -17.157501 21.393449 1.695052 9.482942 -1.908599 -0.007896 -2.706000 -63.527323 -44.167022 -35.583049 -0.000001 -0.000007 -20.198511 151.487367 23.634879 -141.712765 -0.000003 0.000004 -17.295702 -11.497288 24.129306 -6.583163
37.281399 28.451002 44.161591 -167.981386 10.877504 2.071687 -0.825500 0.895800 5.069503 -12.327273 -14.588811 -1.023610 0.000005 0.000004 4.622202 10.429354 -0.046141 -0.730721 -0.000001 0.000000 10.755804 4.343470 -8.432975 -3.431998 0.000002 -0.000000 2.173905 0.398880 -1.691908 0.576743 2.539400 -1.380902 6.760996 6.355459 -5.287546 -1.740563 5.406993 0.000000 0.000001 171.669797 -130.983863 101.741603 0.000002 0.000006 -10.686996 81.467314 -10.184079 18.344286 -0.000005 -0.000003 -13.346897 10.033209 -1.156939 16.208035 -2.411403 -2.842702 7.518596 -3.400249 -17.692068 27.043273 -4.245494 -0.000000 -0.000007 -32.054334 -125.523932 39.436785 0.000006 0.000002 -10.446710 -48.111549 -136.289349 -76.522284 0.000001 -0.000004 -12.218904 -21.304267 4.026914 82.402503 2.346703 0.301803 -2.502791 30.125430 -28.477946 14.136099 0.000007 0.000002 -20.597000 126.189289 126.822625 -151.686426 0.000001 -0.000002 -17.157501 22.380259 2.393814 9.706241 -1.908599 -0.007900 -2.705996 -62.965301 -43.907103 -33.867947 0.000001 -0.000003 -20.198511 151.460374 23.956421 -141.716890 0.000001 0.000002 -17.295702 -11.288974 24.235536 -6.207280
36.820900 28.524601 44.320396 -172.797106 9.761005 2.149568 -0.825493 0.895799 5.069497 -7.264511 -13.292366 0.474967 -0.000003 0.000000 4.622201 5.315836 -0.367177 -0.320455 -0.000006 0.000001 10.755803 4.116041 -7.751095 -2.950545 0.000003 -0.000005 2.173903 0.486430 -1.621547 0.920731 2.539396 -1.380901 6.760999 5.503700 -4.357501 -0.437172 5.406998 0.000001 0.000001 170.331107 -131.386188 100.046787 -0.000002 0.000003 -10.687002 82.391500 -10.380482 18.847407 0.000004 0.000001 -13.346897 9.032910 -1.383387 16.168366 -2.411405 -2.842701 7.518597 -3.560227 -16.669391 26.175576 -4.245493 0.000004 -0.000007 -36.649456 -126.095551 35.632311 0.000003 -0.000000 -10.446706 -48.904708 -136.552789 -77.965831 0.000012 -0.000000 -12.218901 -21.283771 4.217585 82.250224 2.346703 0.301803 -2.502801 30.736968 -27.674555 13.940761 0.000004 0.000002 -20.596998 123.120853 126.226390 -149.534766 0.000001 0.000001 -17.157499 23.226929 3.535493 10.303301 -1.908592 -0.007900 -2.706008 -62.305880 -43.753854 -32.797284 0.000000 -0.000007 -20.198507 150.697360 23.839355 -141.173235 -0.000003 0.000001 -17.295704 -11.584635 24.140477 -6.342055
